<svg xmlns="http://www.w3.org/2000/svg" viewBox="0 0 175.75 148.82" xml:space="preserve">
  <style>
    .st1{fill:#fff}
  </style>
  <g id="logo">
    <path fill="none" d="M0 0h175.75v148.82H0z"/>
    <path class="st1" d="M167.24 8H8.5c-.27 0-.5.23-.5.5v131.81c0 .28.22.5.5.5h158.74c.28 0 .5-.22.5-.5V8.5c0-.27-.22-.5-.5-.5zm-.5 1v102.46H9V9h157.74zM9 139.81v-27.35h157.74v27.35H9z"/>
    <g id="_x3C_Groep_doen_x3E__4_">
      <path class="st1" d="M39.01 33.92c0-4.98-3.95-9.01-8.93-9.01H20.2v42.62H30c4.98 0 9.01-4.03 9.01-9.01v-24.6zM30 73.53H17.19c-1.58 0-3-1.42-3-3V21.9c0-1.58 1.42-3 3-3H30c8.3 0 14.94 6.72 14.94 14.94v24.67c0 8.3-6.64 15.02-14.94 15.02M78.46 33.45c0-4.98-3.95-9.01-8.93-9.01h-.79c-4.98 0-9.01 4.03-9.01 8.93v25.62c0 4.98 4.03 9.01 9.01 9.01h.79c4.98 0 8.93-4.03 8.93-9.01V33.45zm-8.93 40.56h-.79c-8.3 0-15.02-6.72-15.02-15.02V33.37c0-8.3 6.72-14.94 15.02-14.94h.79c8.3 0 14.94 6.72 14.94 14.94v25.62c0 8.3-6.64 15.02-14.94 15.02M120.61 73.53H95.86c-1.58 0-3.01-1.42-3.01-3V21.9c0-1.58 1.42-3 3.01-3h24.75c2.06 0 3 1.5 3 3s-.95 3-3 3H98.86v17.4h15.1c1.98 0 3.01 1.5 3.01 3s-1.03 3-3.01 3h-15.1v19.21h21.74c2.06 0 3 1.5 3 3.01.01 1.51-.94 3.01-2.99 3.01M158.16 74.01c-1.19 0-2.92 0-4.11-2.69l-17.24-38.98V71c0 1.98-1.5 3-3.01 3s-3-1.03-3-3V21.51c0-2.14 1.74-3.08 3.56-3.08 1.74 0 3.08.4 4.03 2.53l17.16 39.14V21.43c0-1.98 1.58-3.01 3.08-3.01s2.93 1.03 2.93 3.01v49.02c0 2.61-1.66 3.56-3.4 3.56"/>
    </g>
    <path class="st1" d="M19.48 93.83h-3.32v7.58c0 .67-.51 1.03-1.03 1.03s-1.03-.35-1.03-1.03V84.65c0-.54.49-1.03 1.03-1.03h4.35c2.83 0 5.13 2.24 5.13 5.07s-2.29 5.14-5.13 5.14zm0-8.15h-3.32v6.1h3.32c1.7 0 3.08-1.38 3.08-3.08 0-1.67-1.38-3.02-3.08-3.02zM37.25 102.44c-.4 0-.81-.22-.97-.73l-1.19-3.89h-6.67l-1.21 3.89c-.16.51-.54.73-.95.73-.62 0-1.05-.46-1.05-1 0-.11.03-.22.05-.32l5.26-16.9c.16-.49.67-.76 1.21-.76.57 0 1.08.27 1.24.76l5.26 16.9c.03.11.05.22.05.32.02.54-.41 1-1.03 1zm-5.51-15.3-2.67 8.64h5.37l-2.7-8.64zM48.56 93.97l3.35 6.99c.08.16.11.32.11.46 0 .57-.43 1.03-1.08 1.03-.32 0-.67-.16-.89-.59l-3.67-7.72h-2.75v7.29c0 .67-.51 1.03-1.03 1.03s-1.03-.35-1.03-1.03V84.65c0-.54.49-1.03 1.03-1.03h4.54c2.83 0 5.13 2.29 5.13 5.13V89c-.01 2.37-1.52 4.34-3.71 4.97zm1.65-5.21c0-1.7-1.38-3.08-3.08-3.08h-3.51v6.4h3.62c1.7 0 2.97-1.38 2.97-3.08v-.24zM63.22 85.68h-2.97v15.74c0 .67-.51 1.03-1.03 1.03-.51 0-1.03-.35-1.03-1.03V85.68h-2.97c-.67 0-1.03-.51-1.03-1.03s.35-1.03 1.03-1.03h7.99c.67 0 1.03.51 1.03 1.03s-.34 1.03-1.02 1.03zM68.46 102.44c-.51 0-1.03-.35-1.03-1.03V84.49c0-.67.51-1.03 1.03-1.03.51 0 1.03.35 1.03 1.03v16.92c0 .68-.51 1.03-1.03 1.03zM78.96 102.44h-.27c-2.83 0-5.13-2.29-5.13-5.13v-8.75c0-2.83 2.29-5.1 5.13-5.1h.27c2.59 0 4.72 1.89 5.08 4.4v.16c0 .65-.49 1-1 1-.46 0-.89-.3-1.03-.89-.3-1.46-1.51-2.62-3.05-2.62h-.27c-1.7 0-3.08 1.38-3.08 3.05v8.75c0 1.7 1.38 3.08 3.08 3.08h.27c1.54 0 2.75-1.16 3.05-2.62.13-.62.59-.89 1.03-.89.51 0 1 .35 1 1v.19c-.38 2.46-2.52 4.37-5.08 4.37zM88.59 102.44c-.51 0-1.03-.35-1.03-1.03V84.49c0-.67.51-1.03 1.03-1.03.51 0 1.03.35 1.03 1.03v16.92c0 .68-.52 1.03-1.03 1.03zM99.35 93.83h-3.32v7.58c0 .67-.51 1.03-1.03 1.03s-1.03-.35-1.03-1.03V84.65c0-.54.49-1.03 1.03-1.03h4.35c2.83 0 5.13 2.24 5.13 5.07s-2.3 5.14-5.13 5.14zm0-8.15h-3.32v6.1h3.32c1.7 0 3.08-1.38 3.08-3.08-.01-1.67-1.38-3.02-3.08-3.02zM117.11 102.44c-.41 0-.81-.22-.97-.73l-1.19-3.89h-6.67l-1.21 3.89c-.16.51-.54.73-.95.73-.62 0-1.05-.46-1.05-1 0-.11.03-.22.05-.32l5.26-16.9c.16-.49.67-.76 1.21-.76.57 0 1.08.27 1.24.76l5.26 16.9c.03.11.05.22.05.32.03.54-.4 1-1.03 1zm-5.5-15.3-2.67 8.64h5.37l-2.7-8.64zM127.4 85.68h-2.97v15.74c0 .67-.51 1.03-1.03 1.03s-1.03-.35-1.03-1.03V85.68h-2.97c-.67 0-1.03-.51-1.03-1.03s.35-1.03 1.03-1.03h7.99c.67 0 1.03.51 1.03 1.03s-.34 1.03-1.02 1.03zM132.64 102.44c-.51 0-1.03-.35-1.03-1.03V84.49c0-.67.51-1.03 1.03-1.03.51 0 1.03.35 1.03 1.03v16.92c0 .68-.52 1.03-1.03 1.03zM147.5 102.28h-8.45c-.54 0-1.03-.49-1.03-1.03v-16.6c0-.54.49-1.03 1.03-1.03h8.45c.7 0 1.03.51 1.03 1.03s-.32 1.03-1.03 1.03h-7.42v5.94h5.16c.67 0 1.03.51 1.03 1.03 0 .51-.35 1.03-1.03 1.03h-5.16v6.56h7.42c.7 0 1.03.51 1.03 1.03s-.33 1.01-1.03 1.01zM156.38 102.44h-.24c-2.78 0-5.34-1.78-5.34-4.99 0-.67.51-1 1.03-1 .51 0 1.03.32 1.03 1.03 0 1.92 1.57 2.92 3.32 2.92h.27c2.11 0 3.05-1.08 3.05-3 0-2.21-1.54-2.83-3.21-3.75-2.59-1.4-5.21-2.13-5.21-5.56 0-2.62 2.24-4.62 5.08-4.62h.27c2.59 0 4.91 1.83 4.91 4.32 0 .67-.46 1-.97 1-.49 0-1-.32-1.08-.97-.13-1.32-1.27-2.29-2.92-2.29h-.24c-2.21 0-2.97 1.62-2.97 2.56 0 1.94 1.67 2.59 3.13 3.35 2.7 1.43 5.26 2.32 5.26 5.99-.01 3.07-1.93 5.01-5.17 5.01zM18.07 119.16c-1.84 0-3.05.15-3.75.28v13.53h3.17v-4.77h.04c.25.03.49.04.71.04 1.61 0 2.99-.48 3.89-1.36.8-.82 1.22-2.01 1.22-3.43 0-1.31-.5-2.51-1.35-3.22-.86-.73-2.11-1.07-3.93-1.07zm.1 6.42c-.29 0-.48 0-.65-.04l-.03-.01v-3.65l.03-.01c.16-.04.44-.08.88-.08 1.14 0 1.79.66 1.79 1.81 0 1.22-.78 1.98-2.02 1.98zM25.55 121.17c-.97 1.28-1.5 3.06-1.5 4.99 0 1.91.49 3.66 1.38 4.9.99 1.38 2.42 2.12 4.15 2.12h.02c3.58 0 5.72-2.71 5.72-7.24 0-3.42-1.71-6.88-5.55-6.88-1.72 0-3.18.73-4.22 2.11zm6.4 4.89c0 2.71-.83 4.33-2.23 4.33h-.02c-.46 0-.86-.18-1.21-.52-.7-.7-1.07-2.04-1.06-3.77-.01-1.66.38-3.02 1.08-3.73.34-.35.74-.52 1.19-.52 1.36 0 2.25 1.65 2.25 4.21zM39.44 123.03c0-.68.62-1.1 1.61-1.1 1.05 0 1.84.3 2.42.58l.61-2.81c-.58-.29-1.57-.62-3.01-.62-1.48 0-2.73.43-3.59 1.24-.81.76-1.25 1.83-1.25 3.02 0 1.7 1.08 3.05 3.2 4.04 1.34.58 1.93.97 1.93 1.73s-.63 1.2-1.74 1.2c-1.17 0-2.3-.39-2.95-.74l-.55 2.87c.66.35 1.99.72 3.37.72 1.6 0 2.93-.43 3.83-1.26.84-.77 1.28-1.83 1.28-3.06 0-1.84-.98-3.17-3.01-4.06-1.63-.76-2.15-1.06-2.15-1.75zM47.95 132.98h3.21v-10.74h2.98v-2.98h-9.12v2.98h2.93zM56.48 120.86c-1.3 1.29-1.98 3.19-1.98 5.48 0 1.92.52 3.57 1.49 4.77 1.09 1.34 2.75 2.05 4.79 2.05 1.26 0 2.32-.24 2.78-.48l-.39-2.75c-.48.19-1.26.31-1.9.31-2.13 0-3.4-1.54-3.4-4.12 0-1.37.33-2.44.99-3.18.59-.66 1.41-1.01 2.37-1.01.71 0 1.37.14 1.96.41l.57-2.75c-.44-.26-1.44-.51-2.72-.51-1.78 0-3.41.63-4.56 1.78zM65.59 121.17c-.97 1.28-1.5 3.06-1.5 4.99 0 1.91.49 3.66 1.38 4.9.99 1.38 2.42 2.12 4.15 2.12h.02c3.58 0 5.72-2.71 5.72-7.24 0-3.42-1.71-6.88-5.55-6.88-1.72 0-3.18.73-4.22 2.11zm6.39 4.89c0 2.71-.83 4.33-2.23 4.33h-.02c-.46 0-.86-.18-1.21-.52-.7-.7-1.07-2.04-1.06-3.77-.01-1.66.38-3.02 1.08-3.73.34-.34.74-.52 1.19-.52 1.36 0 2.25 1.65 2.25 4.21zM85.24 120.5c-1.18-.94-2.62-1.34-4.8-1.34-1.25 0-2.57.1-3.62.28v13.48c.65.09 1.66.2 3.01.2 2.38 0 4.19-.53 5.39-1.57 1.36-1.17 2.11-3.2 2.11-5.7-.01-2.43-.71-4.23-2.09-5.35zm-2.45 9.1c-.54.53-1.24.8-2.08.8h-.04c-.21 0-.48 0-.63-.04H80v-8.46l.03-.01c.23-.05.52-.08.86-.08 1.92 0 3.06 1.53 3.06 4.08 0 1.7-.39 2.95-1.16 3.71zM91.99 127.33h4.05v-2.81h-4.05v-2.4h4.27v-2.86h-7.48v13.72h7.73v-2.86h-4.52zM104.47 119.26h-3.2v13.72h7.57v-2.9h-4.37zM110.77 121.17c-.97 1.28-1.5 3.06-1.5 4.99 0 1.91.49 3.66 1.38 4.9.99 1.38 2.42 2.12 4.15 2.12h.02c3.58 0 5.72-2.71 5.72-7.24 0-3.42-1.71-6.88-5.55-6.88-1.73 0-3.18.73-4.22 2.11zm6.39 4.89c0 2.71-.83 4.33-2.23 4.33h-.02c-.46 0-.86-.18-1.21-.52-.7-.7-1.07-2.04-1.06-3.77-.01-1.66.38-3.02 1.08-3.73.34-.35.74-.52 1.19-.52 1.36 0 2.25 1.65 2.25 4.21zM123.9 132.98h3.2v-10.74h2.99v-2.98h-9.12v2.98h2.93zM134.36 127.33h4.05v-2.81h-4.05v-2.4h4.28v-2.86h-7.48v13.72h7.72v-2.86h-4.52zM147.33 126.62l-.02-.01v-.11l.02-.01c1-.44 2.08-1.66 2.08-3.32 0-1.31-.38-2.25-1.18-2.96-.87-.73-2.13-1.05-4.1-1.05-1.35 0-2.71.1-3.73.28v13.53h3.17v-5.21h.51c.9 0 1.38.3 1.7 2.03.33 1.66.64 2.8.8 3.18h3.29c-.18-.44-.45-1.6-.71-2.72-.09-.4-.19-.8-.27-1.17-.31-1.34-.79-2.1-1.56-2.46zm-2.99-1.36h-.77v-3.43l.02-.01c.15-.06.43-.08.98-.08 1.07.02 1.66.63 1.66 1.71 0 1.11-.72 1.81-1.89 1.81zM151.09 119.26h3.2v13.71h-3.2zM156.72 130.29c-.44 0-.89-.07-1.28-.19l-.31 2.79c.48.18 1.24.29 1.95.29 3.12 0 4.51-1.62 4.51-5.24v-8.68h-3.2V128c-.01 2.03-.9 2.29-1.67 2.29z"/>
  </g>
</svg>